<svg width="40" height="40" viewBox="0 0 40 40" fill="none" xmlns="http://www.w3.org/2000/svg" role="img" aria-label="شعار وِنس">
  <defs>
    <linearGradient id="logoGrad" x1="0" y1="0" x2="40" y2="40" gradientUnits="userSpaceOnUse">
      <stop offset="0" stop-color="#5B4BFF"/>
      <stop offset="0.5" stop-color="#7B61FF"/>
      <stop offset="1" stop-color="#00D4FF"/>
    </linearGradient>
  </defs>
  <rect width="40" height="40" rx="11" fill="url(#logoGrad)"/>
  <path d="M10 15c0-1.7 1.3-3 3-3h1.6c1.2 0 2.3.7 2.8 1.8L20 18l2.6-4.2c.5-1.1 1.6-1.8 2.8-1.8H27c1.7 0 3 1.3 3 3v9.4c0 1.5-1.2 2.6-2.6 2.6-.9 0-1.8-.5-2.3-1.3L20 18.5l-5.1 7.2c-.5.8-1.4 1.3-2.3 1.3-1.4 0-2.6-1.1-2.6-2.6V15z" fill="white"/>
</svg>
