<svg xmlns="http://www.w3.org/2000/svg" viewBox="0 0 104 104" role="img" aria-label="ونس">
  <path d="M15.30 66.83 C15.08 64.31 13.89 56.73 13.97 51.72 C14.05 46.70 14.12 41.41 15.78 36.73 C17.44 32.05 20.53 27.55 23.92 23.63 C27.31 19.72 31.42 15.48 36.12 13.25 C40.82 11.01 47.04 9.59 52.10 10.24 C57.17 10.89 62.05 14.64 66.49 17.14 C70.93 19.64 74.84 22.06 78.76 25.24 C82.69 28.41 87.61 31.74 90.04 36.19 C92.48 40.63 93.41 46.68 93.37 51.90 C93.33 57.12 92.00 62.82 89.82 67.50 C87.63 72.18 84.16 76.84 80.28 80.00 C76.39 83.15 71.17 84.51 66.51 86.41 C61.84 88.31 57.39 90.50 52.29 91.39 C47.20 92.28 38.67 91.69 35.94 91.75" fill="none" stroke="#2B2140" stroke-width="8.5" stroke-linecap="round"/>
  <circle cx="82.19" cy="60.09" r="7.0" fill="#E8833A"/>
  <circle cx="60.40" cy="20.66" r="5.8" fill="#E85D75"/>
  <circle cx="22.59" cy="38.29" r="5.8" fill="#7FA98F"/>
</svg>