<svg xmlns="http://www.w3.org/2000/svg" viewBox="0 0 300 104" role="img" aria-label="ونس">
  <path d="M215.30 66.83 C215.08 64.31 213.89 56.73 213.97 51.72 C214.05 46.70 214.12 41.41 215.78 36.73 C217.44 32.05 220.53 27.55 223.92 23.63 C227.31 19.72 231.42 15.48 236.12 13.25 C240.82 11.01 247.04 9.59 252.10 10.24 C257.17 10.89 262.05 14.64 266.49 17.14 C270.93 19.64 274.84 22.06 278.76 25.24 C282.69 28.41 287.61 31.74 290.04 36.19 C292.48 40.63 293.41 46.68 293.37 51.90 C293.33 57.12 292.00 62.82 289.82 67.50 C287.63 72.18 284.16 76.84 280.28 80.00 C276.39 83.15 271.17 84.51 266.51 86.41 C261.84 88.31 257.39 90.50 252.29 91.39 C247.20 92.28 238.67 91.69 235.94 91.75" fill="none" stroke="#FAF6F0" stroke-width="8.5" stroke-linecap="round"/>
  <circle cx="282.19" cy="60.09" r="7.0" fill="#E8833A"/>
  <circle cx="260.40" cy="20.66" r="5.8" fill="#E85D75"/>
  <circle cx="222.59" cy="38.29" r="5.8" fill="#7FA98F"/>
  <g transform="translate(8 62)">
    <path d="M93.52 0 L93.52 -9.82 L101.33 -9.82 L101.33 0 Z M26.18 18.6 Q19.5 18.6 14.25 16.16 Q9 13.72 6 9.45 Q3 5.17 3 -0.3 Q3 -1.8 3.22 -4.24 Q3.45 -6.67 3.83 -9.67 Q4.2 -12.67 4.69 -15.86 Q5.17 -19.05 5.62 -22.05 L16.95 -20.55 Q16.2 -15.52 15.64 -11.44 Q15.07 -7.35 14.77 -4.54 Q14.47 -1.72 14.47 -0.38 Q14.47 2.4 15.82 4.46 Q17.18 6.52 19.8 7.65 Q22.43 8.78 26.18 8.78 Q30.15 8.78 32.47 7.61 Q34.8 6.45 35.77 4.54 Q36.75 2.62 36.75 0.22 L36.75 -30 L48.23 -30 L48.23 0.22 Q48.23 5.77 45.38 9.9 Q42.52 14.03 37.54 16.31 Q32.55 18.6 26.18 18.6 Z M48.07 0 L48.23 -9.82 L53.55 -9.82 Q55.88 -9.82 57.15 -10.54 Q58.42 -11.25 58.91 -13.46 Q59.4 -15.67 59.4 -20.18 L59.4 -33.75 L70.88 -33.75 L70.88 -20.18 Q70.88 -13.12 69 -8.66 Q67.12 -4.2 63.3 -2.1 Q59.47 0 53.55 0 Z M74.02 0 Q70.72 0 67.54 -1.24 Q64.35 -2.48 61.57 -4.88 L68.55 -12.07 Q69.9 -10.95 71.25 -10.39 Q72.6 -9.82 74.02 -9.82 L88.35 -9.82 L82.05 -4.27 L82.05 -20.55 Q82.05 -21.68 81.79 -24.11 Q81.52 -26.55 81.04 -29.66 Q80.55 -32.77 79.95 -36 L91.27 -37.73 Q91.8 -35.02 92.29 -31.65 Q92.77 -28.27 93.15 -25.27 Q93.52 -22.27 93.52 -20.55 L93.52 0 Z M101.33 0 L101.33 -9.82 Q101.77 -9.82 102.04 -9.49 Q102.3 -9.15 102.49 -8.51 Q102.67 -7.88 102.75 -6.97 Q102.83 -6.08 102.83 -4.95 Q102.83 -3.82 102.75 -2.89 Q102.67 -1.95 102.49 -1.31 Q102.3 -0.67 102.04 -0.34 Q101.77 0 101.33 0 Z M101.33 0 L101.33 -9.82 L116.1 -9.82 L109.12 -4.05 L109.12 -37.73 L120.6 -37.73 L120.6 0 Z M101.33 0 Q100.95 0 100.65 -0.34 Q100.35 -0.67 100.2 -1.31 Q100.05 -1.95 99.94 -2.89 Q99.83 -3.82 99.83 -4.95 Q99.83 -6.45 99.97 -7.54 Q100.12 -8.62 100.46 -9.22 Q100.8 -9.82 101.33 -9.82 Z M140.03 31.8 L140.03 28.2 L157.28 28.2 L157.28 31.8 Z M144.53 19.35 Q141.67 19.35 138.6 18.94 Q135.53 18.52 132.15 17.77 L133.88 8.62 Q137.55 9.07 140.14 9.3 Q142.72 9.53 144.53 9.53 Q149.62 9.53 151.88 7.72 Q154.12 5.92 154.12 2.25 L154.12 -29.55 L156.45 -27.9 L148.12 -27.9 Q145.57 -27.9 143.85 -27.26 Q142.12 -26.62 141.26 -24.64 Q140.4 -22.65 140.4 -18.52 Q140.4 -14.7 141.15 -12.82 Q141.9 -10.95 143.62 -10.39 Q145.35 -9.82 148.12 -9.82 L154.12 -9.82 L154.12 0 L148.12 0 Q141.82 0 137.51 -2.02 Q133.2 -4.05 131.06 -8.17 Q128.92 -12.3 128.92 -18.52 Q128.92 -24.82 131.06 -29.1 Q133.2 -33.38 137.51 -35.55 Q141.82 -37.73 148.12 -37.73 L165.6 -37.73 L165.6 2.25 Q165.6 7.5 162.97 11.36 Q160.35 15.22 155.62 17.29 Q150.9 19.35 144.53 19.35 Z" fill="#FAF6F0" fill-rule="nonzero"/>
    <path d="M109.12 -44.7 L109.12 -53.85 L120.67 -53.85 L120.67 -44.7 Z" fill="#E8833A"/>
  </g>
</svg>